# xmcd
#
# Track frame offsets: 
#        188
#        17788
#        30988
#        46738
#        58288
#        72238
#        88738
#        106963
#        119413
#        135838
#        148438
#        162313
#        179038
#        197488
#
# Disc length: 2899 seconds
#
# Revision: 15
# Processed by: cddbd v1.5.2PL0 Copyright (c) Steve Scherf et al.
# Submitted via: ExactAudioCopy v1.1
#
DISCID=c70b510e
DTITLE=Udo Jürgens - Zeig mir den Platz an der Sonne
DYEAR=1994
DGENRE=Schlager
TTITLE0=Zeig mir den Platz an der Sonne
TTITLE1=Anuschka
TTITLE2=Ein ehrenwertes Haus
TTITLE3=Siebzehn Jahr, blondes Haar
TTITLE4=Immer wieder geht die Sonne auf
TTITLE5=Mit 66 Jahren
TTITLE6=Die Sonne und du
TTITLE7=Mathilda
TTITLE8=Aber bitte mit Sahne
TTITLE9=Der Teufel hat den Schnaps gemacht
TTITLE10=Vielen Dank für die Blumen
TTITLE11=Liebe ohne Leiden (Duett mit Jenny)
TTITLE12=Griechischer Wein
TTITLE13=Boogie Woogie Baby
EXTD=YEAR: 1994
EXTT0=
EXTT1=
EXTT2=
EXTT3=
EXTT4=
EXTT5=
EXTT6=
EXTT7=
EXTT8=
EXTT9=
EXTT10=
EXTT11=
EXTT12=
EXTT13=
PLAYORDER=
